<svg width="22" height="24" viewBox="0 0 22 24" fill="none" xmlns="http://www.w3.org/2000/svg">
<path d="M7.68238 22.528V18.8587C7.68238 17.9221 8.42041 17.1628 9.33082 17.1628H12.6588C13.096 17.1628 13.5153 17.3414 13.8244 17.6595C14.1336 17.9776 14.3073 18.4089 14.3073 18.8587V22.528C14.3045 22.9174 14.4529 23.2918 14.7196 23.5682C14.9863 23.8446 15.3491 24 15.7276 24H17.9981C19.0585 24.0028 20.0764 23.5714 20.8272 22.801C21.578 22.0305 22 20.9844 22 19.8934V9.44023C22 8.55895 21.6203 7.72301 20.9632 7.1576L13.2394 0.811042C11.8958 -0.301726 9.97076 -0.265797 8.66729 0.896374L1.1197 7.1576C0.431594 7.70634 0.0203237 8.54476 0 9.44023V19.8827C0 22.1566 1.7917 24 4.00188 24H6.22055C7.00668 24 7.64558 23.3474 7.65127 22.5387L7.68238 22.528Z" fill="#26232E"/>
</svg>
