<svg width="12" height="10" viewBox="0 0 12 10" fill="none" xmlns="http://www.w3.org/2000/svg">
<path d="M6 0C7.24098 0 8.41756 0.430545 9.44195 1.22764C10.4663 2.01891 11.3385 3.17673 11.9649 4.62545C12.0117 4.736 12.0117 4.864 11.9649 4.96873C10.7122 7.86618 8.48195 9.6 6 9.6H5.99415C3.51805 9.6 1.2878 7.86618 0.035122 4.96873C-0.0117073 4.864 -0.0117073 4.736 0.035122 4.62545C1.2878 1.728 3.51805 0 5.99415 0H6ZM6 2.47273C4.70634 2.47273 3.65854 3.51418 3.65854 4.8C3.65854 6.08 4.70634 7.12145 6 7.12145C7.28781 7.12145 8.33561 6.08 8.33561 4.8C8.33561 3.51418 7.28781 2.47273 6 2.47273ZM6.0007 3.34417C6.80265 3.34417 7.45826 3.99581 7.45826 4.79872C7.45826 5.59581 6.80265 6.24745 6.0007 6.24745C5.1929 6.24745 4.53729 5.59581 4.53729 4.79872C4.53729 4.69981 4.549 4.60672 4.56656 4.51363H4.59582C5.24558 4.51363 5.77241 4.00163 5.79582 3.36163C5.86021 3.34999 5.93046 3.34417 6.0007 3.34417Z" fill="#535059"/>
</svg>
